Simulation
nRows=27
nColumns=15
endheader
time  TH_x TH_y TH_z SC_y  SC_z  SC_x  AC_y  AC_z  AC_x  GH_y  GH_z  GH_yy  EL_x  PS_y
7.203000000000001  0.000000  0.000000  0.000000  -15.252477844174157  -1.9644399805796169  -13.039486850260317  39.66555380115117  11.166555248913136  -4.547802733943422  50.51772446783255  29.549520927694903  9.889929524043016  13.163897785582352  120.000000
7.251020000000001  0.000000  0.000000  0.000000  -15.061860570778208  -1.2506810749577226  -12.259543560846208  39.83732680914403  11.64406023094947  -4.291376496061814  51.635384466815594  31.546004399627627  6.875965168489643  12.586497686123037  120.000000
7.2990400000000015  0.000000  0.000000  0.000000  -14.871493557853315  -0.378540045757347  -11.002252550258637  40.16316260685799  12.07920198601756  -4.01815112543308  52.41490701409199  33.59866120817794  3.872444799463644  12.113796518124106  120.000000
7.347060000000001  0.000000  0.000000  0.000000  -14.706232583178426  0.6413661226415177  -9.27423854803863  40.654282684487335  12.379754807622696  -3.7306600702240535  52.77938235990125  35.64609494021102  1.0309213162698654  11.735092629750241  120.000000
7.395080000000001  0.000000  0.000000  0.000000  -14.579199292322649  1.8142026462562428  -7.103404138624566  41.351337321060285  12.454391358340938  -3.4512239504438327  52.699095939966334  37.6476230771665  -1.5368210544217018  11.428464955894208  120.000000
7.443100000000001  0.000000  0.000000  0.000000  -14.517723170769258  3.133575283364075  -4.499412902001203  42.26784272799771  12.203569577779705  -3.1686864290899734  52.1536639772413  39.5588491192484  -3.7414576751985122  11.163765170927176  120.000000
7.491120000000001  0.000000  0.000000  0.000000  -14.546233735333134  4.574468529627819  -1.4503383387487199  43.35572867290268  11.56985709964968  -2.869880559273181  51.21427290960808  41.34875635057323  -5.578591430029843  10.934458394856716  120.000000
7.5391400000000015  0.000000  0.000000  0.000000  -14.683090421664808  6.102598798226326  2.0359020767962126  44.54717979459721  10.54896264576769  -2.5552687486509282  49.99124871994055  43.0110639540095  -7.090683338559171  10.741780294804057  120.000000
7.587160000000001  0.000000  0.000000  0.000000  -14.95152400674866  7.683022920226168  5.921455065756975  45.770702563077414  9.163916649177901  -2.215381062540995  48.57337986296766  44.537447582547934  -8.31416403103745  10.58613025838433  120.000000
7.635180000000001  0.000000  0.000000  0.000000  -15.371561914993583  9.275828186221231  10.135000360586398  46.95901022778129  7.465815506157343  -1.8411926547159285  47.03025377631465  45.923713460980395  -9.285854174311966  10.464984387155377  120.000000
7.683200000000001  0.000000  0.000000  0.000000  -15.946967171157445  10.836551890604136  14.579606138049739  48.056723619239875  5.526468927312924  -1.4270128153506656  45.40713889965671  47.165271896903995  -10.03434685560632  10.37533543606962  120.000000
7.731220000000001  0.000000  0.000000  0.000000  -16.659610045097203  12.321264176897682  19.140072656347893  49.02233121613987  3.4291801449597283  -0.9774092066825908  43.73525788882159  48.260526711864784  -10.588442229939803  10.31469350812256  120.000000
7.7792400000000015  0.000000  0.000000  0.000000  -17.46834710797083  13.69226989939625  23.694316305851807  49.827032364719656  1.2594489005749185  -0.5087353100689473  42.03993844240498  49.21398878706024  -10.979619890997093  10.281756803511623  120.000000
7.827260000000001  0.000000  0.000000  0.000000  -18.31808957381138  14.924820742134791  28.124529928971615  50.45033530101436  -0.9048064967278182  -0.047625783086333924  40.34942986910603  50.03760603998461  -11.245419347397167  10.275659400270456  120.000000
7.875280000000001  0.000000  0.000000  0.000000  -19.152120445994758  16.01043863178997  32.323789835392105  50.8762402053575  -2.996871097130648  0.37125520276617846  38.70088974715498  50.75384387939272  -11.427397123699327  10.29341225553022  120.000000
7.923300000000001  0.000000  0.000000  0.000000  -19.92455249881241  16.957102741622034  36.202711972874624  51.090496106346265  -4.962896172912626  0.7074673456157933  37.14545487728916  51.39386166093997  -11.569272048870836  10.328355507142524  120.000000
7.971320000000001  0.000000  0.000000  0.000000  -20.608010319527175  17.78634370796956  39.6885092047206  51.08225620402391  -6.760758181289919  0.9177493536557444  35.74880749523921  51.99691391595472  -11.714550635987164  10.369399886924239  120.000000
8.019340000000001  0.000000  0.000000  0.000000  -21.1949731790582  18.52761558915435  42.7260497807557  50.8456878479273  -8.359082950445984  0.9592985332305491  34.58521748428109  52.603446989863706  -11.904378533949254  10.404140182421111  120.000000
8.06736  0.000000  0.000000  0.000000  -21.69126549379657  19.20990501934646  45.27474639546939  50.38501282977186  -9.733594945585788  0.802511419499158  33.72648772957533  53.253796927797325  -12.17505115539905  10.422765692169754  120.000000
8.115380000000002  0.000000  0.000000  0.000000  -22.10266581251077  19.851879253260503  47.29654177107969  49.71848123576544  -10.855156477074368  0.4460547785643481  33.2223835906763  53.97837245618238  -12.550118086669194  10.421675387515158  120.000000
8.163400000000001  0.000000  0.000000  0.000000  -22.42902284682766  20.46182746994296  48.75802138314616  48.88885922829662  -11.690572692645448  -0.09124300561567587  33.08091064474385  54.77946583456467  -13.032121337251459  10.403788290977651  120.000000
8.21142  0.000000  0.000000  0.000000  -22.659025994881848  21.035991824946077  49.671262036169374  47.95880478628405  -12.243882249766  -0.7687621594777501  33.26177498677058  55.62622000699406  -13.597265071958589  10.37706807178311  120.000000
8.259440000000001  0.000000  0.000000  0.000000  -22.78132143270241  21.582758702133415  50.13494325427071  47.01619421636733  -12.592230393241339  -1.5166798727007542  33.67798269350336  56.45314107619804  -14.193539184823997  10.345842389713347  120.000000
8.30746  0.000000  0.000000  0.000000  -22.790136988278093  22.09473965036303  50.33591134250845  46.1518618208967  -12.859031069775307  -2.26321912675414  34.234274021601856  57.1486656505017  -14.754777185738535  10.31052168383066  120.000000
8.355480000000002  0.000000  0.000000  0.000000  -22.671092043739215  22.523642208189408  50.42550346569652  45.41276749675437  -13.106977304944248  -2.9708105459131455  34.88870427438197  57.58570644395492  -15.231415008559395  10.2777515310566  120.000000
8.403500000000001  0.000000  0.000000  0.000000  -22.416037510821763  22.83995582757005  50.443000269759544  44.80093526287264  -13.33244072517043  -3.6225044683610363  35.63896899657835  57.66556013314875  -15.592090609848393  10.252069200892548  120.000000
8.451520000000002  0.000000  0.000000  0.000000  -22.037596054321973  23.05324999289208  50.39438386296192  44.30090714030915  -13.531800676493392  -4.204857309460985  36.48802396635147  57.3076351256298  -15.81857954613506  10.222493638752315  120.000000
